<?xml version="1.0" encoding="UTF-8" standalone="no"?>
<!DOCTYPE svg PUBLIC "-//W3C//DTD SVG 1.1//EN" "http://www.w3.org/Graphics/SVG/1.1/DTD/svg11.dtd">
<svg width="100%" height="100%" viewBox="0 0 1102 646" version="1.1" xmlns="http://www.w3.org/2000/svg" xmlns:xlink="http://www.w3.org/1999/xlink" xml:space="preserve" xmlns:serif="http://www.serif.com/" style="fill-rule:evenodd;clip-rule:evenodd;stroke-linejoin:round;stroke-miterlimit:2;">
    <g transform="matrix(1,0,0,1,-322.876,-114.041)">
        <g id="OD2-Compatível---Fundo-Escuro" serif:id="OD2 Compatível - Fundo Escuro" transform="matrix(0.111729,0,0,0.111729,78.2254,1002.29)">
            <g transform="matrix(2.34594,0,0,2.34594,-2286.26,-15201.2)">
                <g transform="matrix(4.75797,0,0,4.48852,1598.89,-330.651)">
                    <path d="M605.3,911.3C589.4,911.3 587.1,892.4 587.1,873.5C587.1,846.3 594.7,832.7 609,832.7C616.6,832.7 621.1,836.5 621.9,838L621.9,900C621.9,900 618.9,911.3 605.3,911.3ZM615.1,768.4L614.3,769.9L616.6,773.7C619.6,779.8 621.9,783.5 621.9,813C618.9,810.7 610.6,806.2 595.4,806.2C584.8,806.2 569.7,808.5 557.6,820.6C545.5,832.7 539.4,850.9 539.4,875.8C539.4,928.8 564.4,940.1 586.3,940.1C596.1,940.1 610.5,937.1 619.6,921.9C620.4,921.1 621.1,920.4 621.9,920.4C622.7,920.4 623.4,920.4 623.4,921.2C623.4,921.2 624.2,922 624.2,922.7L623.4,937.8L624.2,938.6L675.6,934.8L676.4,933.3L674.1,928C671.1,921.9 668.8,916.7 668.8,878.1L668.8,810C668.8,801.7 668.8,771.4 671.8,762.3C652.9,765.3 640,768.4 627.2,767.6L615.1,768.4Z" style="fill:rgb(242,242,242);fill-rule:nonzero;"/>
                </g>
                <g transform="matrix(4.75797,0,0,4.48852,1590.7,-330.651)">
                    <path d="M535,931.8C532,925.7 529.7,922.7 529.7,876.6L529.7,805.5C529.7,785.8 530.5,763.9 530.5,763.1L529.7,762.3L476.7,767.6L475.9,769.1L478.2,772.9C481.2,779 483.5,784.2 483.5,822.8L483.5,876.5C483.5,922.6 482,925.7 478.2,931.7L478.2,932.5L475.9,936.3L476.7,937.8C476.7,937.8 485.8,937 506.2,937C526.6,937 535.7,937.8 535.7,937.8L536.5,936.3L535,931.8Z" style="fill:rgb(242,242,242);fill-rule:nonzero;"/>
                </g>
                <g transform="matrix(3.73996,0,0,3.80044,2357.73,165.617)">
                    <path d="M301.8,946.6C286.7,942.8 268.5,931.5 268.5,877.8C268.5,823.3 287.4,812 301.8,808.2C316.9,812 335.1,823.3 335.1,877C335.1,931.5 316.2,942.9 301.8,946.6ZM301.8,774.2C266.2,777.2 206.5,794.6 206.5,877.8C206.5,941.3 237.5,975.4 301.1,980.7C336.7,977.7 396.4,960.3 396.4,877.1C397.2,813.5 366.1,779.5 301.8,774.2Z" style="fill:rgb(242,242,242);fill-rule:nonzero;"/>
                </g>
                <g transform="matrix(11.3603,0,0,11.3603,-3188.72,-2859.64)">
                    <path d="M634.8,644.8C634.8,644.8 633.3,646.3 629.5,646.3C625.7,646.3 623.4,644 623.4,639.5C623.4,633.4 627.2,632.7 631.7,632.7L634.7,632.7L634.7,644.8L634.8,644.8ZM652.2,640.3L652.2,624.4C652.2,619.1 652.2,613.1 648.4,609.3C645.4,605.5 638.6,603.2 628.7,603.2C615.1,603.2 609.8,605.5 609,605.5L609,621.4L609.8,621.4C613.6,617.6 618.9,614.6 623.4,614.6C627.9,614.6 631,615.4 632.5,616.9C634,618.4 634,620.7 634,623.7L634,625.2C633.2,625.2 630.2,624.4 625.7,624.4C619.6,624.4 604.5,624.4 604.5,641C604.5,644.8 606,656.9 620.4,656.9C625.7,656.9 631,656.1 634,650.1L634,656.9L653.7,656.1L653.7,655.3L652.9,652.3C652.9,649.4 652.2,646.4 652.2,640.3Z" style="fill:rgb(242,242,242);fill-rule:nonzero;"/>
                </g>
                <g transform="matrix(11.3603,0,0,11.3603,-3219.27,-2859.64)">
                    <path d="M738.5,646.4C733.2,646.4 730.9,644.1 730.9,630.5C730.9,618.4 732.4,613.9 738.5,613.9C743.8,613.9 746.1,616.2 746.1,629.8C746.1,641.8 744.6,646.4 738.5,646.4ZM765.7,629.7C765.7,613.1 756.6,604 739.2,604C721.8,604 712,613.8 712,632C712,648.6 721.1,657.7 738.5,657.7C755.9,657 765.7,647.9 765.7,629.7Z" style="fill:rgb(242,242,242);fill-rule:nonzero;"/>
                </g>
                <g transform="matrix(11.3603,0,0,11.3603,-3219.27,-2859.64)">
                    <path d="M820.2,653.9C818.7,651.6 817.9,650.1 817.9,631.2L817.9,627.4C817.9,616.8 817.9,613 815.6,609.2C813.3,604.7 808.8,602.4 802,602.4C795.9,602.4 790.7,603.2 787.6,607.7L786.8,607.7L786.8,603.2L786,603.2L767.1,605.5C766.3,605.5 766.3,605.5 765.6,606.3L765.6,607.8C767.1,610.1 767.9,612.3 767.9,628.2L767.9,632C767.9,650.2 767.1,651.7 765.6,653.9L764.8,655.4L764.8,656.2L789,656.2L789,655.4L788.2,653.9C786.7,651.6 785.9,650.1 785.9,632L785.9,617.6C785.9,617.6 787.4,614.6 792,614.6C795,614.6 796.5,616.1 797.3,616.9C798.1,618.4 798.8,620.7 798.8,631.3C798.8,649.5 798,651 796.5,653.2L795.7,654.7L795.7,655.5L819.9,655.5L820.2,653.9Z" style="fill:rgb(242,242,242);fill-rule:nonzero;"/>
                </g>
                <g transform="matrix(11.3603,0,0,11.3603,-3215.42,-2859.64)">
                    <path d="M684,646.4C677.9,646.4 677.2,638.1 677.2,631.3C677.2,620.7 680.2,615.4 686.3,615.4C689.3,615.4 690.8,616.9 691.6,617.7L691.6,641.9C690.8,641.8 689.3,646.4 684,646.4ZM706.7,604.8L693.8,608.6C693,607.8 689.3,604.1 680.2,604.1C659.8,604.1 657.5,623.8 657.5,632.1C657.5,653.3 667.3,657.8 676.4,657.8C680.9,657.8 687,656.3 690,649.5L690,653.3C690,656.3 690.8,667.7 677.1,667.7C670.3,667.7 665,663.9 660.5,658.6L659.7,658.6L659.7,676.8C659.7,676.8 667.3,682.1 678.6,682.1C689.9,682.1 699,676 702.1,670.8C705.9,664.7 705.9,658.7 705.9,647.3L705.9,628.4C705.9,615.5 705.9,608.7 706.7,605.7C706.7,604.9 706.7,604.9 705.9,604.2C707.4,605.5 706.7,604.8 706.7,604.8Z" style="fill:rgb(242,242,242);fill-rule:nonzero;"/>
                </g>
                <g transform="matrix(2.04875,0,0,2.25501,4080.23,4470.87)">
                    <path d="M-618.5,-412.4C-630.6,-407.9 -649.5,-409.4 -658.6,-417.7C-664.7,-422.2 -667.7,-426 -665.4,-438.9M-409.7,-189.3C-427.9,-217.3 -454.3,-240.7 -487.6,-258.1C-552.7,-292.9 -623,-293.7 -631.3,-293.7C-680.5,-293.7 -738,-303.5 -738.7,-330C-738.7,-336.1 -737.2,-340.6 -732.6,-345.1C-725,-352.7 -709.9,-357.2 -688.7,-357.2C-673.6,-357.2 -656.2,-354.9 -638,-350.4C-584.3,-337.5 -534.4,-301.2 -533.6,-301.2L-532.8,-301.2C-532,-301.2 -530.5,-302 -530.5,-303.5C-530.5,-304.3 -530.5,-304.3 -531.3,-305C-539.6,-317.1 -534.3,-341.3 -534.3,-341.3C-534.3,-342.1 -534.3,-342.8 -535.1,-343.6C-535.9,-344.4 -536.6,-344.4 -537.4,-343.6C-537.4,-343.6 -541.9,-340.6 -546.5,-338.3L-549.5,-338.3C-562.4,-338.3 -595.6,-352.7 -613,-361.8C-625.9,-367.9 -625.9,-373.9 -625.9,-373.9C-625.9,-374.7 -626.7,-375.4 -627.4,-375.4C-630.4,-376.2 -634.2,-376.9 -638,-377.7C-634.2,-379.2 -628.9,-380.7 -622.1,-380.7C-618.3,-380.7 -614.5,-379.9 -610.8,-379.2C-583.6,-373.9 -535.2,-356.5 -515.5,-342.9C-505.7,-336.1 -501.9,-331.6 -498.9,-324.7C-498.9,-323.9 -498.1,-323.9 -497.4,-323.9C-496.6,-323.9 -495.9,-324.7 -495.9,-326.2L-495.9,-327L-497.4,-341.4C-495.9,-341.4 -493.6,-340.6 -490.6,-340.6C-486.8,-340.6 -482.3,-341.4 -478.5,-342.1C-477.7,-342.1 -477,-342.9 -477,-344.4C-477,-345.2 -477.8,-345.9 -478.5,-345.9C-478.5,-345.9 -499.7,-348.2 -529.2,-361.8C-553.4,-372.4 -592,-386 -617.7,-392.8C-605.6,-395.1 -595.8,-395.8 -591.2,-395.8L-588.9,-395.8C-576.8,-393.5 -558.6,-383.7 -557.9,-383.7L-557.1,-383.7C-556.3,-383.7 -554.8,-384.5 -554.8,-386L-554.8,-386.8C-555.6,-389.1 -555.6,-389.8 -555.6,-389.8L-553.3,-389.8C-536.7,-389.8 -520.8,-366.3 -520.8,-366.3C-520.8,-365.5 -520,-365.5 -519.3,-365.5C-518.5,-365.5 -517.8,-365.5 -517.8,-366.3C-497.4,-394.3 -512.5,-434.4 -513.3,-435.9C-513.3,-436.7 -514.8,-437.4 -515.6,-437.4C-516.4,-437.4 -517.1,-436.6 -517.1,-435.9C-517.9,-418.5 -523.9,-408.7 -541.3,-408.7C-572.3,-408.7 -623.8,-437.4 -644.2,-453.3C-671.4,-475.2 -694.9,-489.6 -695.6,-489.6L-697.9,-489.6C-698.7,-488.8 -698.7,-488.1 -698.7,-487.3L-695.7,-469.1C-734.3,-485 -798.6,-482.7 -801.6,-482.7C-802.4,-482.7 -803.1,-481.9 -803.1,-481.2C-803.1,-480.4 -803.1,-479.7 -802.3,-478.9C-788.7,-471.3 -773.6,-460.7 -763,-453.9C-769.1,-454.7 -772.1,-454.7 -778.1,-454.7C-842.4,-454.7 -907.5,-429 -907.5,-429C-908.3,-429 -909,-427.5 -909,-426.7C-909,-425.9 -908.2,-425.2 -907.5,-425.2C-883.3,-424.4 -850,-415.4 -823.5,-404C-856,-372.2 -870.4,-338.9 -871.2,-301.1C-872.7,-236 -824.3,-185.4 -823.5,-185.4C-823.5,-184.6 -822.7,-184.6 -822,-184.6C-821.2,-184.6 -819.7,-185.4 -819.7,-186.9L-819.7,-187.7C-823.5,-202.1 -826.5,-228.5 -827.3,-239.9C-805.4,-215.7 -774.3,-198.3 -734.3,-187.7C-701,-178.6 -667.7,-176.4 -651.8,-176.4L-643.5,-176.4C-642.7,-176.4 -642,-177.2 -642,-177.9C-642,-178.7 -642,-179.4 -642.8,-180.2C-660.2,-190 -667.8,-202.9 -670,-208.9C-628.4,-199.1 -612.5,-180.9 -602.7,-165.8C-592.1,-148.4 -591.4,-132.5 -591.4,-132.5C-591.4,-131.7 -590.6,-131 -589.9,-131C-589.1,-131 -588.4,-131 -587.6,-131.8L-562.6,-159.8C-539.1,-102.3 -567.9,-47.1 -567.9,-46.3L-567.9,-44C-567.1,-43.2 -566.4,-43.2 -565.6,-43.2C-544.4,-50.8 -528.5,-64.4 -522.5,-70.4C-510.4,-28.8 -517.2,16.6 -543.7,52.1C-567.9,84.6 -600.4,100.5 -641.3,100.5C-686.7,100.5 -713.2,88.4 -729,55.9C-743.4,26.4 -747.9,-14.5 -747.9,-66.6C-747.9,-119.6 -762.3,-151.3 -775.1,-169.5C-789.5,-189.2 -805.4,-199 -805.4,-199L-807.7,-199C-808.5,-199 -808.5,-197.5 -808.5,-196.7C-800.2,-174.8 -802.4,-155.9 -804.7,-146C-869.8,-220.1 -1018,-229.2 -1047.5,-229.2C-1055.1,-229.2 -1058.8,-228.4 -1058.8,-228.4C-1059.6,-228.4 -1060.3,-227.6 -1060.3,-226.9C-1060.3,-226.1 -1059.5,-223.9 -1058.8,-223.9C-1058,-223.9 -913.6,-211.8 -865.1,-153.5C-834.1,-116.4 -827.3,-70.3 -842.4,-27.2C-853.7,4.6 -839.4,29.5 -832.6,39.4C-855.3,37.1 -859.1,25 -859.1,25C-859.9,24.2 -860.6,24.2 -861.4,25C-862.2,25.8 -862.2,26.5 -862.2,27.3C-846.3,81.8 -813.8,110.5 -806.2,114.3C-810.7,153.6 -856.1,179.4 -856.1,180.1C-856.9,180.9 -856.9,181.6 -856.9,182.4C-856.9,183.2 -856.1,183.9 -855.4,183.9L-641.3,185.4C-619.4,185.4 -543.7,181.6 -477.1,137.7C-446.8,117.3 -422.6,91.6 -406,61.3C-386.3,25.7 -376.5,-17.4 -376.5,-65.8C-375.7,-113.6 -387,-155.2 -409.7,-189.3" style="fill:rgb(242,242,242);fill-rule:nonzero;"/>
                </g>
                <g transform="matrix(2.72647,0,0,2.72647,3873.73,2563.36)">
                    <path d="M-64.5,533.2C-65.3,532.4 -72.1,525.6 -91.7,525.6L-93.2,525.6C-107.6,525.6 -128,525.6 -139.3,555.1C-140.1,555.9 -140.8,556.6 -140.8,556.6C-141.6,556.6 -141.6,556.6 -142.3,555.8C-142.3,555.8 -143.1,555 -143.1,554.3L-142.3,528.6L-143.8,527.1L-205.1,536.2L-208.9,537L-208.1,537.8C-189.9,568.1 -180.9,604.4 -180.9,646.7C-180.9,683.8 -187.7,717.1 -199.8,745.8L-178.6,745.8C-143.8,745.8 -127.2,746.6 -127.2,746.6L-125.7,744.3L-131,736C-136.3,726.9 -140.1,720.9 -140.1,644.5L-140.1,599C-138.6,597.5 -131.8,588.4 -109.8,588.4L-98.4,588.4C-87.8,588.4 -76.5,589.9 -68.1,602L-65.8,601.2C-65.8,601.2 -66.6,595.9 -66.6,569.4C-65.3,543 -64.5,533.2 -64.5,533.2Z" style="fill:rgb(242,242,242);fill-rule:nonzero;"/>
                </g>
            </g>
            <g transform="matrix(8.95019,0,0,8.95019,-700.133,-8970.67)">
                <path d="M431.573,699.281L431.545,699.281L431.545,596.757L552.711,597.692C565.246,597.692 608.575,595.298 646.695,567.641C655.333,561.239 663.106,554.009 669.904,546.007L709.468,545.894L709.468,546.049L931.838,546.049L931.838,580.176C931.838,580.176 959.933,597.677 997.247,597.677C1034.56,597.677 1069.61,577.534 1079.85,560.363C1082.78,555.652 1085.03,550.959 1086.75,546.049L1423.12,546.049L1423.12,695.342C1423.16,696.206 1423.18,697.079 1423.18,697.955C1423.18,731.293 1396.11,758.358 1362.77,758.358L491.962,758.358C459.068,758.358 432.28,732.008 431.573,699.281Z" style="fill:rgb(217,29,60);fill-rule:nonzero;"/>
            </g>
            <g transform="matrix(13.1759,0,0,8.43101,-3489.22,-21676.4)">
                <path d="M577.716,2161.18C583.524,2161.18 588.944,2162.75 593.978,2165.9L591.422,2185.14L590.261,2186.05C588.48,2184.11 586.389,2182.6 583.988,2181.51C581.588,2180.42 579.187,2179.88 576.787,2179.88C572.063,2179.88 568.54,2182.02 566.217,2186.32C563.893,2190.62 562.732,2197.36 562.732,2206.56C562.732,2226.53 567.649,2236.51 577.484,2236.51C579.807,2236.51 582.207,2236.03 584.685,2235.06C587.163,2234.09 589.409,2232.76 591.422,2231.07L592.7,2232.16L591.539,2251.22C586.97,2254.12 581.975,2255.57 576.554,2255.57C567.03,2255.57 559.789,2251.58 554.833,2243.59C549.877,2235.61 547.399,2224.11 547.399,2209.1C547.399,2193.85 550.032,2182.05 555.298,2173.7C560.564,2165.35 568.036,2161.18 577.716,2161.18Z" style="fill:white;fill-rule:nonzero;"/>
                <path d="M635.794,2161C644.622,2161 651.436,2164.93 656.238,2172.8C661.039,2180.66 663.439,2191.8 663.439,2206.2C663.439,2221.93 660.826,2234.12 655.599,2242.78C650.372,2251.43 642.996,2255.75 633.471,2255.75C624.721,2255.75 617.945,2251.73 613.144,2243.68C608.342,2235.64 605.942,2224.29 605.942,2209.65C605.942,2194.16 608.536,2182.18 613.724,2173.7C618.913,2165.23 626.269,2161 635.794,2161ZM634.516,2179.51C629.715,2179.51 626.289,2181.54 624.237,2185.59C622.184,2189.65 621.158,2196.64 621.158,2206.56C621.158,2214.55 621.604,2220.81 622.494,2225.35C623.385,2229.89 624.817,2233.12 626.792,2235.06C628.767,2237 631.419,2237.96 634.749,2237.96C639.627,2237.96 643.093,2235.97 645.145,2231.97C647.197,2227.98 648.223,2220.96 648.223,2210.92C648.223,2202.93 647.758,2196.67 646.829,2192.13C645.9,2187.59 644.467,2184.35 642.531,2182.42C640.595,2180.48 637.924,2179.51 634.516,2179.51Z" style="fill:white;fill-rule:nonzero;"/>
                <path d="M747.304,2254.12L734.178,2254.12L733.365,2226.35L731.391,2196.39L730.461,2196.39L717.568,2245.04L706.301,2245.04L694.801,2196.39L693.872,2196.39L691.781,2224.17L690.504,2254.12L678.075,2254.12L684.347,2162.45L701.538,2162.45L703.862,2175.88L712.341,2214.73L713.27,2214.73L722.447,2176.06L725.002,2162.45L741.845,2162.45L747.304,2254.12Z" style="fill:white;fill-rule:nonzero;"/>
                <path d="M792.256,2162.27C798.916,2162.27 804.027,2164.72 807.589,2169.62C811.151,2174.52 812.932,2181.57 812.932,2190.77C812.932,2201.42 810.57,2209.95 805.847,2216.36C801.123,2222.78 794.812,2225.98 786.913,2225.98L780.989,2225.98L781.57,2254.12L766.934,2254.12L767.515,2226.89L766.934,2162.45L792.256,2162.27ZM789.585,2209.65C792.295,2208.32 794.308,2206.32 795.625,2203.66C796.941,2200.99 797.6,2197.42 797.6,2192.95C797.6,2188.35 796.767,2184.9 795.102,2182.6C793.437,2180.3 790.863,2179.03 787.378,2178.79L781.57,2179.15L781.222,2209.1L789.585,2209.65Z" style="fill:white;fill-rule:nonzero;"/>
                <path d="M873.914,2254.12L859.162,2254.12L857.536,2240.87L856.491,2235.61L844.643,2235.42L834.189,2235.79L833.376,2239.6L831.633,2254.12L817.346,2254.12L837.906,2162.45L855.213,2162.45L873.914,2254.12ZM853.355,2218.36L846.734,2183.32L845.804,2183.32L838.022,2218.36L845.572,2218.54L853.355,2218.36Z" style="fill:white;fill-rule:nonzero;"/>
                <path d="M925.836,2164.26L925.023,2181.69L913.175,2180.42L909.806,2180.42L909.458,2224.71L909.923,2254.12L895.403,2254.12L895.984,2226.89L895.752,2180.42L892.383,2180.42L880.303,2181.69L879.374,2179.88L880.187,2162.45L925.023,2162.45L925.836,2164.26Z" style="fill:white;fill-rule:nonzero;"/>
                <path d="M956.385,2224.71L956.966,2254.12L942.33,2254.12L942.911,2226.89L942.33,2162.45L957.198,2162.45L956.385,2224.71ZM961.496,2115.62L967.071,2128.68L966.839,2131.05C965.135,2132.74 963.858,2133.95 963.006,2134.68C953.326,2143.99 947.054,2149.92 944.189,2152.47L942.679,2152.28L938.962,2143.21C947.944,2131.95 954.952,2122.7 959.986,2115.43L961.496,2115.62Z" style="fill:white;fill-rule:nonzero;"/>
                <path d="M1009.35,2254.12L991.813,2254.12L973.228,2162.45L987.98,2162.45L989.722,2175.7L1000.41,2233.24L1001.34,2233.24L1013.77,2176.97L1015.39,2162.45L1029.8,2162.45L1009.35,2254.12Z" style="fill:white;fill-rule:nonzero;"/>
                <path d="M1085.43,2235.61L1086.36,2237.06L1085.32,2254.12L1045.13,2254.12L1045.71,2226.89L1045.13,2162.45L1085.9,2162.45L1086.71,2164.26L1085.78,2181.15L1070.68,2180.24L1059.76,2180.24L1059.53,2198.76L1069.99,2198.94L1080.09,2198.39L1080.9,2200.03L1079.97,2217.27L1068.94,2216.73L1059.3,2216.73L1059.18,2224.71L1059.42,2236.33L1069.64,2236.33L1085.43,2235.61Z" style="fill:white;fill-rule:nonzero;"/>
                <path d="M1138.87,2237.06L1137.94,2254.12L1103.44,2254.12L1104.14,2226.89L1103.44,2162.45L1118.31,2162.45L1117.49,2224.71L1117.73,2235.42L1138.05,2235.42L1138.87,2237.06Z" style="fill:white;fill-rule:nonzero;"/>
            </g>
        </g>
    </g>
</svg>
